%TF.GenerationSoftware,KiCad,Pcbnew,(6.0.4)*%
%TF.CreationDate,2022-05-04T17:07:43-02:30*%
%TF.ProjectId,interstate,696e7465-7273-4746-9174-652e6b696361,rev?*%
%TF.SameCoordinates,Original*%
%TF.FileFunction,Paste,Top*%
%TF.FilePolarity,Positive*%
%FSLAX46Y46*%
G04 Gerber Fmt 4.6, Leading zero omitted, Abs format (unit mm)*
G04 Created by KiCad (PCBNEW (6.0.4)) date 2022-05-04 17:07:43*
%MOMM*%
%LPD*%
G01*
G04 APERTURE LIST*
G04 Aperture macros list*
%AMRoundRect*
0 Rectangle with rounded corners*
0 $1 Rounding radius*
0 $2 $3 $4 $5 $6 $7 $8 $9 X,Y pos of 4 corners*
0 Add a 4 corners polygon primitive as box body*
4,1,4,$2,$3,$4,$5,$6,$7,$8,$9,$2,$3,0*
0 Add four circle primitives for the rounded corners*
1,1,$1+$1,$2,$3*
1,1,$1+$1,$4,$5*
1,1,$1+$1,$6,$7*
1,1,$1+$1,$8,$9*
0 Add four rect primitives between the rounded corners*
20,1,$1+$1,$2,$3,$4,$5,0*
20,1,$1+$1,$4,$5,$6,$7,0*
20,1,$1+$1,$6,$7,$8,$9,0*
20,1,$1+$1,$8,$9,$2,$3,0*%
%AMFreePoly0*
4,1,13,0.900000,0.500000,2.600000,0.500000,2.600000,-0.500000,0.900000,-0.500000,0.400000,-1.000000,-0.400000,-1.000000,-0.900000,-0.500000,-2.600000,-0.500000,-2.600000,0.500000,-0.900000,0.500000,-0.400000,1.000000,0.400000,1.000000,0.900000,0.500000,0.900000,0.500000,$1*%
G04 Aperture macros list end*
%ADD10R,0.900000X1.700000*%
%ADD11R,0.800000X1.100000*%
%ADD12RoundRect,0.200000X-0.275000X0.200000X-0.275000X-0.200000X0.275000X-0.200000X0.275000X0.200000X0*%
%ADD13RoundRect,0.200000X-0.200000X-0.275000X0.200000X-0.275000X0.200000X0.275000X-0.200000X0.275000X0*%
%ADD14RoundRect,0.225000X-0.250000X0.225000X-0.250000X-0.225000X0.250000X-0.225000X0.250000X0.225000X0*%
%ADD15RoundRect,0.150000X0.825000X0.150000X-0.825000X0.150000X-0.825000X-0.150000X0.825000X-0.150000X0*%
%ADD16RoundRect,0.250000X0.475000X-0.250000X0.475000X0.250000X-0.475000X0.250000X-0.475000X-0.250000X0*%
%ADD17RoundRect,0.250000X0.250000X0.475000X-0.250000X0.475000X-0.250000X-0.475000X0.250000X-0.475000X0*%
%ADD18RoundRect,0.150000X0.150000X-0.587500X0.150000X0.587500X-0.150000X0.587500X-0.150000X-0.587500X0*%
%ADD19RoundRect,0.200000X0.200000X0.275000X-0.200000X0.275000X-0.200000X-0.275000X0.200000X-0.275000X0*%
%ADD20R,1.500000X0.700000*%
%ADD21FreePoly0,0.000000*%
%ADD22RoundRect,0.250000X-0.325000X-0.650000X0.325000X-0.650000X0.325000X0.650000X-0.325000X0.650000X0*%
%ADD23RoundRect,0.075000X-0.700000X-0.075000X0.700000X-0.075000X0.700000X0.075000X-0.700000X0.075000X0*%
%ADD24RoundRect,0.075000X-0.075000X-0.700000X0.075000X-0.700000X0.075000X0.700000X-0.075000X0.700000X0*%
%ADD25RoundRect,0.250000X-0.250000X-0.475000X0.250000X-0.475000X0.250000X0.475000X-0.250000X0.475000X0*%
%ADD26RoundRect,0.250000X-1.425000X0.362500X-1.425000X-0.362500X1.425000X-0.362500X1.425000X0.362500X0*%
%ADD27RoundRect,0.200000X0.275000X-0.200000X0.275000X0.200000X-0.275000X0.200000X-0.275000X-0.200000X0*%
%ADD28RoundRect,0.150000X0.587500X0.150000X-0.587500X0.150000X-0.587500X-0.150000X0.587500X-0.150000X0*%
%ADD29RoundRect,0.250000X0.262500X0.450000X-0.262500X0.450000X-0.262500X-0.450000X0.262500X-0.450000X0*%
%ADD30RoundRect,0.225000X0.225000X0.250000X-0.225000X0.250000X-0.225000X-0.250000X0.225000X-0.250000X0*%
%ADD31RoundRect,0.200000X0.335876X0.053033X0.053033X0.335876X-0.335876X-0.053033X-0.053033X-0.335876X0*%
%ADD32R,1.200000X0.900000*%
%ADD33RoundRect,0.225000X0.250000X-0.225000X0.250000X0.225000X-0.250000X0.225000X-0.250000X-0.225000X0*%
%ADD34RoundRect,0.150000X-0.150000X0.587500X-0.150000X-0.587500X0.150000X-0.587500X0.150000X0.587500X0*%
%ADD35RoundRect,0.225000X-0.225000X-0.250000X0.225000X-0.250000X0.225000X0.250000X-0.225000X0.250000X0*%
%ADD36R,1.500000X2.000000*%
%ADD37R,3.800000X2.000000*%
%ADD38RoundRect,0.218750X-0.218750X-0.256250X0.218750X-0.256250X0.218750X0.256250X-0.218750X0.256250X0*%
%ADD39RoundRect,0.150000X-0.825000X-0.150000X0.825000X-0.150000X0.825000X0.150000X-0.825000X0.150000X0*%
%ADD40R,1.100000X4.600000*%
%ADD41R,5.250000X4.550000*%
%ADD42RoundRect,0.150000X-0.587500X-0.150000X0.587500X-0.150000X0.587500X0.150000X-0.587500X0.150000X0*%
G04 APERTURE END LIST*
D10*
%TO.C,SW1*%
X104600000Y-145506000D03*
X108000000Y-145506000D03*
D11*
X106300000Y-147146000D03*
%TD*%
D12*
%TO.C,R3*%
X146432000Y-62443000D03*
X146432000Y-64093000D03*
%TD*%
%TO.C,R78*%
X55000000Y-60175000D03*
X55000000Y-61825000D03*
%TD*%
D13*
%TO.C,R8*%
X156148000Y-72666000D03*
X157798000Y-72666000D03*
%TD*%
%TO.C,R76*%
X154175000Y-103500000D03*
X155825000Y-103500000D03*
%TD*%
D14*
%TO.C,C10*%
X79500000Y-93525000D03*
X79500000Y-95075000D03*
%TD*%
D15*
%TO.C,U1*%
X166275000Y-82060000D03*
X166275000Y-80790000D03*
X166275000Y-79520000D03*
X166275000Y-78250000D03*
X166275000Y-76980000D03*
X166275000Y-75710000D03*
X166275000Y-74440000D03*
X171225000Y-74440000D03*
X171225000Y-75710000D03*
X171225000Y-76980000D03*
X171225000Y-78250000D03*
X171225000Y-79520000D03*
X171225000Y-80790000D03*
X171225000Y-82060000D03*
%TD*%
D16*
%TO.C,C19*%
X122625000Y-136950000D03*
X122625000Y-135050000D03*
%TD*%
D13*
%TO.C,R60*%
X166000000Y-153000000D03*
X167650000Y-153000000D03*
%TD*%
D12*
%TO.C,R38*%
X164000000Y-141000000D03*
X164000000Y-142650000D03*
%TD*%
D13*
%TO.C,R63*%
X166000000Y-159000000D03*
X167650000Y-159000000D03*
%TD*%
D17*
%TO.C,C7*%
X151512000Y-141224000D03*
X149612000Y-141224000D03*
%TD*%
D18*
%TO.C,Q2*%
X116050000Y-64937500D03*
X117950000Y-64937500D03*
X117000000Y-63062500D03*
%TD*%
D19*
%TO.C,R54*%
X58350000Y-157000000D03*
X60000000Y-157000000D03*
%TD*%
D16*
%TO.C,C20*%
X120625000Y-144950000D03*
X120625000Y-143050000D03*
%TD*%
D20*
%TO.C,U4*%
X162650000Y-61500000D03*
D21*
X164500000Y-63000000D03*
D20*
X162650000Y-64500000D03*
X166350000Y-64500000D03*
X166350000Y-61500000D03*
%TD*%
D13*
%TO.C,R9*%
X156175000Y-79500000D03*
X157825000Y-79500000D03*
%TD*%
D12*
%TO.C,R66*%
X122000000Y-166175000D03*
X122000000Y-167825000D03*
%TD*%
D22*
%TO.C,C4*%
X162405000Y-67078000D03*
X165355000Y-67078000D03*
%TD*%
D17*
%TO.C,C6*%
X68900000Y-94500000D03*
X67000000Y-94500000D03*
%TD*%
D23*
%TO.C,U9*%
X123950000Y-138250000D03*
X123950000Y-138750000D03*
X123950000Y-139250000D03*
X123950000Y-139750000D03*
X123950000Y-140250000D03*
X123950000Y-140750000D03*
X123950000Y-141250000D03*
X123950000Y-141750000D03*
X123950000Y-142250000D03*
X123950000Y-142750000D03*
X123950000Y-143250000D03*
X123950000Y-143750000D03*
X123950000Y-144250000D03*
X123950000Y-144750000D03*
X123950000Y-145250000D03*
X123950000Y-145750000D03*
D24*
X125875000Y-147675000D03*
X126375000Y-147675000D03*
X126875000Y-147675000D03*
X127375000Y-147675000D03*
X127875000Y-147675000D03*
X128375000Y-147675000D03*
X128875000Y-147675000D03*
X129375000Y-147675000D03*
X129875000Y-147675000D03*
X130375000Y-147675000D03*
X130875000Y-147675000D03*
X131375000Y-147675000D03*
X131875000Y-147675000D03*
X132375000Y-147675000D03*
X132875000Y-147675000D03*
X133375000Y-147675000D03*
D23*
X135300000Y-145750000D03*
X135300000Y-145250000D03*
X135300000Y-144750000D03*
X135300000Y-144250000D03*
X135300000Y-143750000D03*
X135300000Y-143250000D03*
X135300000Y-142750000D03*
X135300000Y-142250000D03*
X135300000Y-141750000D03*
X135300000Y-141250000D03*
X135300000Y-140750000D03*
X135300000Y-140250000D03*
X135300000Y-139750000D03*
X135300000Y-139250000D03*
X135300000Y-138750000D03*
X135300000Y-138250000D03*
D24*
X133375000Y-136325000D03*
X132875000Y-136325000D03*
X132375000Y-136325000D03*
X131875000Y-136325000D03*
X131375000Y-136325000D03*
X130875000Y-136325000D03*
X130375000Y-136325000D03*
X129875000Y-136325000D03*
X129375000Y-136325000D03*
X128875000Y-136325000D03*
X128375000Y-136325000D03*
X127875000Y-136325000D03*
X127375000Y-136325000D03*
X126875000Y-136325000D03*
X126375000Y-136325000D03*
X125875000Y-136325000D03*
%TD*%
D25*
%TO.C,C25*%
X122050000Y-156000000D03*
X123950000Y-156000000D03*
%TD*%
D26*
%TO.C,R21*%
X77050000Y-83387500D03*
X77050000Y-89312500D03*
%TD*%
D27*
%TO.C,R5*%
X157481000Y-58632000D03*
X157481000Y-56982000D03*
%TD*%
D28*
%TO.C,Q6*%
X60387500Y-140950000D03*
X60387500Y-139050000D03*
X58512500Y-140000000D03*
%TD*%
D29*
%TO.C,R46*%
X106253000Y-140182000D03*
X108078000Y-140182000D03*
%TD*%
D30*
%TO.C,C13*%
X162450000Y-161036000D03*
X160900000Y-161036000D03*
%TD*%
D13*
%TO.C,R14*%
X158675000Y-66316000D03*
X160325000Y-66316000D03*
%TD*%
D12*
%TO.C,R17*%
X67000000Y-83675000D03*
X67000000Y-85325000D03*
%TD*%
D19*
%TO.C,R53*%
X60000000Y-159000000D03*
X58350000Y-159000000D03*
%TD*%
D13*
%TO.C,R43*%
X160925000Y-74250000D03*
X162575000Y-74250000D03*
%TD*%
D27*
%TO.C,R49*%
X128017000Y-132825000D03*
X128017000Y-131175000D03*
%TD*%
D12*
%TO.C,R68*%
X118000000Y-167825000D03*
X118000000Y-166175000D03*
%TD*%
D19*
%TO.C,R29*%
X62825000Y-87000000D03*
X61175000Y-87000000D03*
%TD*%
D17*
%TO.C,C24*%
X135575000Y-150000000D03*
X133675000Y-150000000D03*
%TD*%
D31*
%TO.C,R81*%
X166408363Y-166583363D03*
X165241637Y-165416637D03*
%TD*%
D19*
%TO.C,R12*%
X157798000Y-75750000D03*
X156148000Y-75750000D03*
%TD*%
D16*
%TO.C,C21*%
X136625000Y-136950000D03*
X136625000Y-135050000D03*
%TD*%
D13*
%TO.C,R64*%
X166000000Y-161000000D03*
X167650000Y-161000000D03*
%TD*%
D22*
%TO.C,C8*%
X162525000Y-59000000D03*
X165475000Y-59000000D03*
%TD*%
D13*
%TO.C,R42*%
X160925000Y-75750000D03*
X162575000Y-75750000D03*
%TD*%
%TO.C,R61*%
X167650000Y-155000000D03*
X166000000Y-155000000D03*
%TD*%
D25*
%TO.C,C5*%
X153162000Y-141224000D03*
X155062000Y-141224000D03*
%TD*%
D12*
%TO.C,R69*%
X116000000Y-166175000D03*
X116000000Y-167825000D03*
%TD*%
D27*
%TO.C,R37*%
X63000000Y-140825000D03*
X63000000Y-139175000D03*
%TD*%
D19*
%TO.C,R52*%
X60000000Y-161000000D03*
X58350000Y-161000000D03*
%TD*%
D12*
%TO.C,R26*%
X79775000Y-97000000D03*
X79775000Y-98650000D03*
%TD*%
D13*
%TO.C,R34*%
X160850000Y-162536000D03*
X162500000Y-162536000D03*
%TD*%
D27*
%TO.C,R4*%
X159481000Y-58632000D03*
X159481000Y-56982000D03*
%TD*%
D13*
%TO.C,R1*%
X93175000Y-67000000D03*
X94825000Y-67000000D03*
%TD*%
%TO.C,R65*%
X166000000Y-163000000D03*
X167650000Y-163000000D03*
%TD*%
D27*
%TO.C,R51*%
X120625000Y-136825000D03*
X120625000Y-135175000D03*
%TD*%
D32*
%TO.C,D1*%
X77775000Y-97000000D03*
X77775000Y-100300000D03*
%TD*%
D19*
%TO.C,R56*%
X60000000Y-153000000D03*
X58350000Y-153000000D03*
%TD*%
D12*
%TO.C,R15*%
X155830000Y-137399000D03*
X155830000Y-139049000D03*
%TD*%
D13*
%TO.C,R2*%
X116000000Y-67000000D03*
X117650000Y-67000000D03*
%TD*%
D33*
%TO.C,C12*%
X116000000Y-162775000D03*
X116000000Y-161225000D03*
%TD*%
D13*
%TO.C,R62*%
X166000000Y-157000000D03*
X167650000Y-157000000D03*
%TD*%
D27*
%TO.C,R18*%
X65500000Y-85325000D03*
X65500000Y-83675000D03*
%TD*%
D34*
%TO.C,Q8*%
X102950000Y-165612500D03*
X101050000Y-165612500D03*
X102000000Y-167487500D03*
%TD*%
D27*
%TO.C,R28*%
X76201000Y-103463000D03*
X76201000Y-101813000D03*
%TD*%
D35*
%TO.C,C1*%
X167975000Y-83750000D03*
X169525000Y-83750000D03*
%TD*%
D36*
%TO.C,U3*%
X154412000Y-144074000D03*
X152112000Y-144074000D03*
X149812000Y-144074000D03*
D37*
X152112000Y-150374000D03*
%TD*%
D25*
%TO.C,C9*%
X122050000Y-158000000D03*
X123950000Y-158000000D03*
%TD*%
D30*
%TO.C,C18*%
X106541000Y-149120000D03*
X108091000Y-149120000D03*
%TD*%
D19*
%TO.C,R79*%
X164825000Y-55000000D03*
X163175000Y-55000000D03*
%TD*%
D16*
%TO.C,C27*%
X132207000Y-67559000D03*
X132207000Y-65659000D03*
%TD*%
D38*
%TO.C,D3*%
X104278000Y-137182000D03*
X102703000Y-137182000D03*
%TD*%
D12*
%TO.C,R16*%
X154306000Y-137399000D03*
X154306000Y-139049000D03*
%TD*%
D13*
%TO.C,R11*%
X156148000Y-74190000D03*
X157798000Y-74190000D03*
%TD*%
D39*
%TO.C,U7*%
X158525000Y-99595000D03*
X158525000Y-100865000D03*
X158525000Y-102135000D03*
X158525000Y-103405000D03*
X163475000Y-103405000D03*
X163475000Y-102135000D03*
X163475000Y-100865000D03*
X163475000Y-99595000D03*
%TD*%
D35*
%TO.C,C15*%
X65050000Y-149000000D03*
X66600000Y-149000000D03*
%TD*%
D25*
%TO.C,C22*%
X123625000Y-133000000D03*
X125525000Y-133000000D03*
%TD*%
D13*
%TO.C,R7*%
X126175000Y-67000000D03*
X127825000Y-67000000D03*
%TD*%
%TO.C,R40*%
X160925000Y-78750000D03*
X162575000Y-78750000D03*
%TD*%
%TO.C,R80*%
X60175000Y-170000000D03*
X61825000Y-170000000D03*
%TD*%
D12*
%TO.C,R70*%
X114000000Y-166175000D03*
X114000000Y-167825000D03*
%TD*%
D19*
%TO.C,R44*%
X162575000Y-81500000D03*
X160925000Y-81500000D03*
%TD*%
D12*
%TO.C,R72*%
X110000000Y-166175000D03*
X110000000Y-167825000D03*
%TD*%
D29*
%TO.C,R47*%
X106253000Y-137182000D03*
X108078000Y-137182000D03*
%TD*%
D19*
%TO.C,R57*%
X60000000Y-151000000D03*
X58350000Y-151000000D03*
%TD*%
%TO.C,R58*%
X60000000Y-149000000D03*
X58350000Y-149000000D03*
%TD*%
D13*
%TO.C,R41*%
X160925000Y-77250000D03*
X162575000Y-77250000D03*
%TD*%
D30*
%TO.C,C14*%
X163716000Y-155932000D03*
X162166000Y-155932000D03*
%TD*%
D13*
%TO.C,R6*%
X104000000Y-67000000D03*
X105650000Y-67000000D03*
%TD*%
D12*
%TO.C,R71*%
X112000000Y-166175000D03*
X112000000Y-167825000D03*
%TD*%
D33*
%TO.C,C28*%
X64000000Y-85275000D03*
X64000000Y-83725000D03*
%TD*%
D30*
%TO.C,C29*%
X71275000Y-86000000D03*
X69725000Y-86000000D03*
%TD*%
D18*
%TO.C,Q4*%
X126050000Y-64937500D03*
X127950000Y-64937500D03*
X127000000Y-63062500D03*
%TD*%
D27*
%TO.C,R73*%
X77775000Y-103475000D03*
X77775000Y-101825000D03*
%TD*%
D40*
%TO.C,Q5*%
X89315000Y-99075000D03*
X84235000Y-99075000D03*
D41*
X89550000Y-87500000D03*
X84000000Y-87500000D03*
X89550000Y-92350000D03*
X84000000Y-92350000D03*
%TD*%
D18*
%TO.C,Q3*%
X104050000Y-64937500D03*
X105950000Y-64937500D03*
X105000000Y-63062500D03*
%TD*%
D27*
%TO.C,R30*%
X139955000Y-131341000D03*
X139955000Y-132991000D03*
%TD*%
D19*
%TO.C,R10*%
X157825000Y-78000000D03*
X156175000Y-78000000D03*
%TD*%
%TO.C,R39*%
X103000000Y-163000000D03*
X101350000Y-163000000D03*
%TD*%
D13*
%TO.C,R50*%
X108141000Y-150644000D03*
X106491000Y-150644000D03*
%TD*%
D33*
%TO.C,C17*%
X156000000Y-102050000D03*
X156000000Y-100500000D03*
%TD*%
D35*
%TO.C,C16*%
X65000000Y-154835000D03*
X66550000Y-154835000D03*
%TD*%
D12*
%TO.C,R67*%
X120000000Y-166175000D03*
X120000000Y-167825000D03*
%TD*%
D19*
%TO.C,R32*%
X66650000Y-150500000D03*
X65000000Y-150500000D03*
%TD*%
D13*
%TO.C,R13*%
X158688000Y-64792000D03*
X160338000Y-64792000D03*
%TD*%
%TO.C,R75*%
X154175000Y-99000000D03*
X155825000Y-99000000D03*
%TD*%
D42*
%TO.C,Q7*%
X166062500Y-141050000D03*
X166062500Y-142950000D03*
X167937500Y-142000000D03*
%TD*%
D12*
%TO.C,R48*%
X167000000Y-100675000D03*
X167000000Y-102325000D03*
%TD*%
D39*
%TO.C,U6*%
X65525000Y-87595000D03*
X65525000Y-88865000D03*
X65525000Y-90135000D03*
X65525000Y-91405000D03*
X70475000Y-91405000D03*
X70475000Y-90135000D03*
X70475000Y-88865000D03*
X70475000Y-87595000D03*
%TD*%
D38*
%TO.C,D2*%
X104278000Y-140182000D03*
X102703000Y-140182000D03*
%TD*%
D18*
%TO.C,Q1*%
X93050000Y-64875000D03*
X94950000Y-64875000D03*
X94000000Y-63000000D03*
%TD*%
D12*
%TO.C,R36*%
X112268000Y-161175000D03*
X112268000Y-162825000D03*
%TD*%
D27*
%TO.C,R27*%
X77775000Y-95125000D03*
X77775000Y-93475000D03*
%TD*%
D12*
%TO.C,R35*%
X118000000Y-161175000D03*
X118000000Y-162825000D03*
%TD*%
D30*
%TO.C,C30*%
X62775000Y-88500000D03*
X61225000Y-88500000D03*
%TD*%
D13*
%TO.C,R59*%
X166000000Y-151000000D03*
X167650000Y-151000000D03*
%TD*%
D33*
%TO.C,C11*%
X110268000Y-162775000D03*
X110268000Y-161225000D03*
%TD*%
D19*
%TO.C,R31*%
X66600000Y-156400000D03*
X64950000Y-156400000D03*
%TD*%
%TO.C,R55*%
X60000000Y-155000000D03*
X58350000Y-155000000D03*
%TD*%
%TO.C,R45*%
X162575000Y-83000000D03*
X160925000Y-83000000D03*
%TD*%
D13*
%TO.C,R33*%
X162116000Y-154432000D03*
X163766000Y-154432000D03*
%TD*%
M02*
