M48
; DRILL file {KiCad (6.0.4)} date Wed May  4 17:07:46 2022
; FORMAT={-:-/ absolute / inch / decimal}
; #@! TF.CreationDate,2022-05-04T17:07:46-02:30
; #@! TF.GenerationSoftware,Kicad,Pcbnew,(6.0.4)
; #@! TF.FileFunction,Plated,1,4,PTH
FMAT,2
INCH
; #@! TA.AperFunction,Plated,PTH,ViaDrill
T1C0.0157
; #@! TA.AperFunction,Plated,PTH,ComponentDrill
T2C0.0197
; #@! TA.AperFunction,Plated,PTH,ComponentDrill
T3C0.0276
; #@! TA.AperFunction,Plated,PTH,ComponentDrill
T4C0.0295
; #@! TA.AperFunction,Plated,PTH,ComponentDrill
T5C0.0299
; #@! TA.AperFunction,Plated,PTH,ComponentDrill
T6C0.0315
; #@! TA.AperFunction,Plated,PTH,ComponentDrill
T7C0.0394
; #@! TA.AperFunction,Plated,PTH,ComponentDrill
T8C0.0402
; #@! TA.AperFunction,Plated,PTH,ComponentDrill
T9C0.0472
; #@! TA.AperFunction,Plated,PTH,ComponentDrill
T10C0.0591
; #@! TA.AperFunction,Plated,PTH,ComponentDrill
T11C0.0787
; #@! TA.AperFunction,Plated,PTH,ComponentDrill
T12C0.1102
; #@! TA.AperFunction,Plated,PTH,ComponentDrill
T13C0.1181
; #@! TA.AperFunction,Plated,PTH,ComponentDrill
T14C0.1260
%
G90
G05
T1
X2.165Y-2.5009
X2.3425Y-3.4252
X2.36Y-6.1809
X2.4803Y-5.4331
X2.505Y-6.69
X2.505Y-2.8609
X2.505Y-2.9109
X2.505Y-2.9609
X2.505Y-3.0109
X2.505Y-3.0609
X2.505Y-3.1109
X2.505Y-3.1609
X2.52Y-3.5509
X2.5787Y-3.2283
X2.5787Y-3.6614
X2.5787Y-3.7205
X2.665Y-5.87
X2.665Y-6.105
X2.6969Y-3.3858
X2.71Y-3.3309
X2.755Y-4.5009
X2.755Y-4.5409
X2.755Y-4.5809
X2.755Y-4.6209
X2.775Y-2.8609
X2.775Y-2.9109
X2.775Y-2.9609
X2.775Y-3.0109
X2.775Y-3.0609
X2.775Y-3.1109
X2.775Y-3.1609
X2.895Y-5.6309
X2.895Y-5.6909
X2.895Y-5.7509
X2.895Y-5.8109
X2.895Y-5.8709
X2.895Y-5.9309
X2.895Y-5.9909
X2.945Y-4.8209
X2.955Y-5.6309
X2.995Y-4.8209
X3.015Y-3.5709
X3.015Y-5.6309
X3.035Y-6.6909
X3.045Y-4.8209
X3.055Y-3.5709
X3.075Y-5.6309
X3.075Y-6.4109
X3.095Y-3.5709
X3.095Y-4.8209
X3.13Y-3.7459
X3.135Y-5.6309
X3.145Y-4.8209
X3.155Y-5.6909
X3.155Y-5.7509
X3.155Y-5.8109
X3.155Y-5.8709
X3.155Y-5.9309
X3.155Y-5.9909
X3.175Y-3.4509
X3.175Y-3.4909
X3.175Y-3.5309
X3.175Y-3.5709
X3.175Y-3.6109
X3.1878Y-3.288
X3.195Y-4.8209
X3.235Y-3.3909
X3.235Y-3.5309
X3.235Y-3.6909
X3.235Y-4.8709
X3.235Y-4.9109
X3.235Y-4.9509
X3.235Y-4.9909
X3.235Y-5.0309
X3.295Y-5.6509
X3.295Y-5.7009
X3.295Y-5.7509
X3.295Y-5.8009
X3.295Y-5.8509
X3.295Y-5.9009
X3.295Y-5.9509
X3.295Y-6.0009
X3.345Y-5.6309
X3.375Y-6.5709
X3.405Y-3.5309
X3.405Y-5.6309
X3.43Y-3.2659
X3.455Y-5.6309
X3.465Y-3.8309
X3.465Y-3.8709
X3.465Y-3.9109
X3.465Y-3.9509
X3.465Y-3.9909
X3.495Y-4.0209
X3.505Y-5.6309
X3.535Y-4.0209
X3.555Y-5.6509
X3.555Y-5.7009
X3.555Y-5.7509
X3.555Y-5.8009
X3.555Y-5.8509
X3.555Y-5.9009
X3.555Y-5.9509
X3.555Y-6.0009
X3.575Y-3.8309
X3.575Y-3.8709
X3.575Y-3.9109
X3.575Y-3.9509
X3.575Y-3.9909
X3.595Y-3.3909
X3.595Y-3.5409
X3.605Y-3.6909
X3.675Y-2.6759
X3.7795Y-2.6378
X3.95Y-6.42
X3.9894Y-5.4009
X3.9894Y-5.5209
X4.075Y-5.7309
X4.1Y-2.6809
X4.145Y-5.8709
X4.2126Y-2.6378
X4.29Y-6.34
X4.375Y-6.1509
X4.4Y-5.2709
X4.415Y-5.2309
X4.425Y-5.1859
X4.4536Y-5.1509
X4.475Y-6.1109
X4.57Y-2.6859
X4.58Y-6.305
X4.645Y-6.5409
X4.66Y-2.945
X4.685Y-2.6378
X4.749Y-5.6319
X4.749Y-5.7067
X4.76Y-5.28
X4.76Y-6.225
X4.8051Y-6.1417
X4.82Y-5.26
X4.83Y-5.79
X4.88Y-5.32
X4.91Y-5.81
X4.9213Y-5.9449
X4.93Y-6.22
X4.935Y-6.145
X4.9419Y-5.2362
X4.9463Y-5.8799
X4.97Y-2.6759
X4.9857Y-5.8802
X5.0505Y-5.2918
X5.0787Y-2.6378
X5.08Y-5.16
X5.085Y-5.7509
X5.0856Y-5.8924
X5.0894Y-5.2865
X5.1219Y-5.9378
X5.128Y-5.2942
X5.165Y-5.2809
X5.17Y-3.1
X5.1998Y-2.5373
X5.215Y-5.3009
X5.2284Y-6.0127
X5.2594Y-5.9021
X5.265Y-5.4609
X5.285Y-3.0559
X5.315Y-5.315
X5.315Y-5.8268
X5.3183Y-6.0399
X5.335Y-3.155
X5.3769Y-5.3928
X5.425Y-4.2309
X5.455Y-5.9709
X5.505Y-5.1309
X5.5136Y-5.2999
X5.565Y-4.1509
X5.575Y-5.3709
X5.58Y-2.9609
X5.595Y-5.3109
X5.6278Y-5.289
X5.645Y-5.2509
X5.6453Y-5.2106
X5.65Y-3.0559
X5.705Y-2.6809
X5.745Y-2.7609
X5.765Y-2.5209
X5.775Y-5.6009
X5.775Y-5.6609
X5.78Y-5.5109
X5.79Y-5.5559
X5.815Y-5.6909
X5.82Y-5.6309
X5.83Y-5.5759
X5.835Y-5.5259
X5.855Y-2.7209
X5.875Y-5.4959
X5.91Y-4.1259
X5.94Y-5.9309
X5.9713Y-5.4987
X5.985Y-5.9309
X6.0113Y-5.4787
X6.015Y-4.7809
X6.025Y-4.1659
X6.03Y-5.9309
X6.045Y-2.5059
X6.055Y-2.5559
X6.075Y-3.3959
X6.085Y-2.9209
X6.095Y-4.015
X6.1Y-3.96
X6.1Y-3.1309
X6.1024Y-2.9823
X6.1024Y-3.0709
X6.15Y-4.9159
X6.195Y-2.3559
X6.275Y-3.0109
X6.275Y-3.1109
X6.295Y-2.9209
X6.295Y-3.0509
X6.335Y-6.29
X6.37Y-2.1659
X6.3848Y-6.1845
X6.4567Y-5.6594
X6.465Y-6.47
X6.475Y-2.4809
X6.4764Y-3.1299
X6.535Y-6.1009
X6.555Y-3.2959
X6.5639Y-2.6409
X6.565Y-2.3209
X6.84Y-2.9309
X6.84Y-2.9809
X6.84Y-3.0309
X6.84Y-3.0809
X6.84Y-3.1809
X6.84Y-3.2309
T2
X2.0709Y-2.1654
X2.0709Y-6.6929
X2.0985Y-2.0985
X2.0985Y-2.2322
X2.0985Y-6.6261
X2.0985Y-6.7597
X2.1654Y-2.0709
X2.1654Y-2.2598
X2.1654Y-6.5984
X2.1654Y-6.7874
X2.2322Y-2.0985
X2.2322Y-2.2322
X2.2322Y-6.6261
X2.2322Y-6.7597
X2.2598Y-2.1654
X2.2598Y-6.6929
X6.5984Y-2.1654
X6.5984Y-6.6929
X6.6261Y-2.0985
X6.6261Y-2.2322
X6.6261Y-6.6261
X6.6261Y-6.7597
X6.6929Y-2.0709
X6.6929Y-2.2598
X6.6929Y-6.5984
X6.6929Y-6.7874
X6.7597Y-2.0985
X6.7597Y-2.2322
X6.7597Y-6.6261
X6.7597Y-6.7597
X6.7874Y-2.1654
X6.7874Y-6.6929
T3
X4.0852Y-5.1463
X4.0852Y-5.1963
X4.1352Y-5.1463
X4.1352Y-5.1963
X4.1852Y-5.1463
X4.1852Y-5.1963
T4
X2.1043Y-5.4331
X2.1043Y-5.5118
X2.1043Y-5.5906
X2.1043Y-5.8661
X2.1043Y-5.9449
X2.1043Y-6.0236
X2.1043Y-6.1024
X2.1043Y-6.1811
X2.1043Y-6.2598
X2.1043Y-6.3386
X3.937Y-6.7972
X4.0157Y-6.7972
X4.0945Y-6.7972
X4.3307Y-6.7933
X4.4094Y-6.7933
X4.4882Y-6.7933
X4.5669Y-6.7933
X4.6457Y-6.7933
X4.7244Y-6.7933
X4.8031Y-6.7933
X5.9449Y-2.065
X6.0236Y-2.065
X6.1024Y-2.065
X6.1811Y-2.065
X6.7933Y-3.878
X6.7933Y-3.9567
X6.7933Y-4.0354
X6.7933Y-4.1142
X6.7933Y-5.9449
X6.7933Y-6.0236
X6.7933Y-6.1024
X6.7933Y-6.1811
X6.7933Y-6.2598
X6.7933Y-6.3386
X6.7933Y-6.4173
X6.811Y-5.5118
X6.811Y-5.5906
X6.811Y-5.6693
T5
X5.107Y-6.3346
X5.157Y-6.2346
X5.207Y-6.3346
X5.257Y-6.2346
X5.307Y-6.3346
X5.357Y-6.2346
X5.407Y-6.3346
X5.457Y-6.2346
X5.7763Y-6.3346
X5.8263Y-6.2346
X5.8763Y-6.3346
X5.9263Y-6.2346
X5.9763Y-6.3346
X6.0263Y-6.2346
X6.0763Y-6.3346
X6.1263Y-6.2346
T6
X4.045Y-3.2523
X4.045Y-3.3901
X5.5072Y-3.3465
X5.645Y-3.3465
T7
X2.145Y-3.3024
X2.145Y-3.4009
X2.145Y-3.4993
X3.835Y-4.2977
X3.835Y-4.4945
T8
X3.6024Y-2.361
X3.7205Y-2.361
X4.0354Y-2.361
X4.1535Y-2.361
X4.4685Y-2.361
X4.5866Y-2.361
X4.9016Y-2.361
X5.0197Y-2.361
X5.5315Y-2.361
X5.6496Y-2.361
T9
X4.4035Y-2.9465
X4.4035Y-3.2465
X4.4035Y-3.4465
X5.2035Y-2.9465
X5.2035Y-3.3465
X5.2035Y-3.7465
T10
X4.175Y-4.1509
X4.175Y-4.4509
X4.175Y-4.7509
X5.275Y-4.3009
X5.275Y-4.4509
X5.275Y-4.6009
T11
X5.275Y-4.1509
X5.275Y-4.7509
T12
X2.6378Y-2.874
X2.6378Y-3.0709
X2.8939Y-4.5669
X2.8939Y-4.9606
X3.0315Y-2.874
X3.0315Y-3.0709
X3.0315Y-5.7675
X3.0315Y-5.9644
X3.0907Y-4.5669
X3.0907Y-4.9606
X3.4252Y-5.7675
X3.4252Y-5.9644
X5.7675Y-4.6063
X5.7675Y-5.0
X5.9644Y-4.6063
X5.9644Y-5.0
T13
X2.4122Y-2.5197
X2.5396Y-4.3413
X2.5396Y-5.1862
X2.8059Y-6.3187
X3.2571Y-2.5197
X3.6508Y-6.3187
X6.3187Y-4.3807
X6.3187Y-5.2256
T14
X2.1654Y-2.1654
X2.1654Y-6.6929
X6.6929Y-2.1654
X6.6929Y-6.6929
T0
M30
