%TF.GenerationSoftware,KiCad,Pcbnew,(6.0.4)*%
%TF.CreationDate,2022-05-04T17:07:44-02:30*%
%TF.ProjectId,interstate,696e7465-7273-4746-9174-652e6b696361,rev?*%
%TF.SameCoordinates,Original*%
%TF.FileFunction,Legend,Bot*%
%TF.FilePolarity,Positive*%
%FSLAX46Y46*%
G04 Gerber Fmt 4.6, Leading zero omitted, Abs format (unit mm)*
G04 Created by KiCad (PCBNEW (6.0.4)) date 2022-05-04 17:07:44*
%MOMM*%
%LPD*%
G01*
G04 APERTURE LIST*
%ADD10C,0.150000*%
%ADD11C,0.120000*%
G04 APERTURE END LIST*
D10*
X78708380Y-51512571D02*
X79041714Y-51512571D01*
X79041714Y-52036380D02*
X79041714Y-51036380D01*
X78565523Y-51036380D01*
X78184571Y-52036380D02*
X78184571Y-51369714D01*
X78184571Y-51560190D02*
X78136952Y-51464952D01*
X78089333Y-51417333D01*
X77994095Y-51369714D01*
X77898857Y-51369714D01*
X77136952Y-52036380D02*
X77136952Y-51512571D01*
X77184571Y-51417333D01*
X77279809Y-51369714D01*
X77470285Y-51369714D01*
X77565523Y-51417333D01*
X77136952Y-51988761D02*
X77232190Y-52036380D01*
X77470285Y-52036380D01*
X77565523Y-51988761D01*
X77613142Y-51893523D01*
X77613142Y-51798285D01*
X77565523Y-51703047D01*
X77470285Y-51655428D01*
X77232190Y-51655428D01*
X77136952Y-51607809D01*
X76660761Y-51369714D02*
X76660761Y-52036380D01*
X76660761Y-51464952D02*
X76613142Y-51417333D01*
X76517904Y-51369714D01*
X76375047Y-51369714D01*
X76279809Y-51417333D01*
X76232190Y-51512571D01*
X76232190Y-52036380D01*
X75327428Y-51988761D02*
X75422666Y-52036380D01*
X75613142Y-52036380D01*
X75708380Y-51988761D01*
X75756000Y-51941142D01*
X75803619Y-51845904D01*
X75803619Y-51560190D01*
X75756000Y-51464952D01*
X75708380Y-51417333D01*
X75613142Y-51369714D01*
X75422666Y-51369714D01*
X75327428Y-51417333D01*
X74898857Y-52036380D02*
X74898857Y-51369714D01*
X74898857Y-51036380D02*
X74946476Y-51084000D01*
X74898857Y-51131619D01*
X74851238Y-51084000D01*
X74898857Y-51036380D01*
X74898857Y-51131619D01*
X74470285Y-51988761D02*
X74375047Y-52036380D01*
X74184571Y-52036380D01*
X74089333Y-51988761D01*
X74041714Y-51893523D01*
X74041714Y-51845904D01*
X74089333Y-51750666D01*
X74184571Y-51703047D01*
X74327428Y-51703047D01*
X74422666Y-51655428D01*
X74470285Y-51560190D01*
X74470285Y-51512571D01*
X74422666Y-51417333D01*
X74327428Y-51369714D01*
X74184571Y-51369714D01*
X74089333Y-51417333D01*
X72946476Y-51036380D02*
X72708380Y-52036380D01*
X72517904Y-51322095D01*
X72327428Y-52036380D01*
X72089333Y-51036380D01*
X71279809Y-52036380D02*
X71279809Y-51512571D01*
X71327428Y-51417333D01*
X71422666Y-51369714D01*
X71613142Y-51369714D01*
X71708380Y-51417333D01*
X71279809Y-51988761D02*
X71375047Y-52036380D01*
X71613142Y-52036380D01*
X71708380Y-51988761D01*
X71756000Y-51893523D01*
X71756000Y-51798285D01*
X71708380Y-51703047D01*
X71613142Y-51655428D01*
X71375047Y-51655428D01*
X71279809Y-51607809D01*
X70660761Y-52036380D02*
X70756000Y-51988761D01*
X70803619Y-51893523D01*
X70803619Y-51036380D01*
X70327428Y-51988761D02*
X70232190Y-52036380D01*
X70041714Y-52036380D01*
X69946476Y-51988761D01*
X69898857Y-51893523D01*
X69898857Y-51845904D01*
X69946476Y-51750666D01*
X70041714Y-51703047D01*
X70184571Y-51703047D01*
X70279809Y-51655428D01*
X70327428Y-51560190D01*
X70327428Y-51512571D01*
X70279809Y-51417333D01*
X70184571Y-51369714D01*
X70041714Y-51369714D01*
X69946476Y-51417333D01*
X69470285Y-52036380D02*
X69470285Y-51036380D01*
X69041714Y-52036380D02*
X69041714Y-51512571D01*
X69089333Y-51417333D01*
X69184571Y-51369714D01*
X69327428Y-51369714D01*
X69422666Y-51417333D01*
X69470285Y-51464952D01*
X67851238Y-51131619D02*
X67803619Y-51084000D01*
X67708380Y-51036380D01*
X67470285Y-51036380D01*
X67375047Y-51084000D01*
X67327428Y-51131619D01*
X67279809Y-51226857D01*
X67279809Y-51322095D01*
X67327428Y-51464952D01*
X67898857Y-52036380D01*
X67279809Y-52036380D01*
X66660761Y-51036380D02*
X66565523Y-51036380D01*
X66470285Y-51084000D01*
X66422666Y-51131619D01*
X66375047Y-51226857D01*
X66327428Y-51417333D01*
X66327428Y-51655428D01*
X66375047Y-51845904D01*
X66422666Y-51941142D01*
X66470285Y-51988761D01*
X66565523Y-52036380D01*
X66660761Y-52036380D01*
X66756000Y-51988761D01*
X66803619Y-51941142D01*
X66851238Y-51845904D01*
X66898857Y-51655428D01*
X66898857Y-51417333D01*
X66851238Y-51226857D01*
X66803619Y-51131619D01*
X66756000Y-51084000D01*
X66660761Y-51036380D01*
X65946476Y-51131619D02*
X65898857Y-51084000D01*
X65803619Y-51036380D01*
X65565523Y-51036380D01*
X65470285Y-51084000D01*
X65422666Y-51131619D01*
X65375047Y-51226857D01*
X65375047Y-51322095D01*
X65422666Y-51464952D01*
X65994095Y-52036380D01*
X65375047Y-52036380D01*
X64994095Y-51131619D02*
X64946476Y-51084000D01*
X64851238Y-51036380D01*
X64613142Y-51036380D01*
X64517904Y-51084000D01*
X64470285Y-51131619D01*
X64422666Y-51226857D01*
X64422666Y-51322095D01*
X64470285Y-51464952D01*
X65041714Y-52036380D01*
X64422666Y-52036380D01*
%TO.C,R25*%
X130374380Y-80024142D02*
X129898190Y-79690809D01*
X130374380Y-79452714D02*
X129374380Y-79452714D01*
X129374380Y-79833666D01*
X129422000Y-79928904D01*
X129469619Y-79976523D01*
X129564857Y-80024142D01*
X129707714Y-80024142D01*
X129802952Y-79976523D01*
X129850571Y-79928904D01*
X129898190Y-79833666D01*
X129898190Y-79452714D01*
X129469619Y-80405095D02*
X129422000Y-80452714D01*
X129374380Y-80547952D01*
X129374380Y-80786047D01*
X129422000Y-80881285D01*
X129469619Y-80928904D01*
X129564857Y-80976523D01*
X129660095Y-80976523D01*
X129802952Y-80928904D01*
X130374380Y-80357476D01*
X130374380Y-80976523D01*
X129374380Y-81881285D02*
X129374380Y-81405095D01*
X129850571Y-81357476D01*
X129802952Y-81405095D01*
X129755333Y-81500333D01*
X129755333Y-81738428D01*
X129802952Y-81833666D01*
X129850571Y-81881285D01*
X129945809Y-81928904D01*
X130183904Y-81928904D01*
X130279142Y-81881285D01*
X130326761Y-81833666D01*
X130374380Y-81738428D01*
X130374380Y-81500333D01*
X130326761Y-81405095D01*
X130279142Y-81357476D01*
%TO.C,C23*%
X127267857Y-149677142D02*
X127315476Y-149724761D01*
X127458333Y-149772380D01*
X127553571Y-149772380D01*
X127696428Y-149724761D01*
X127791666Y-149629523D01*
X127839285Y-149534285D01*
X127886904Y-149343809D01*
X127886904Y-149200952D01*
X127839285Y-149010476D01*
X127791666Y-148915238D01*
X127696428Y-148820000D01*
X127553571Y-148772380D01*
X127458333Y-148772380D01*
X127315476Y-148820000D01*
X127267857Y-148867619D01*
X126886904Y-148867619D02*
X126839285Y-148820000D01*
X126744047Y-148772380D01*
X126505952Y-148772380D01*
X126410714Y-148820000D01*
X126363095Y-148867619D01*
X126315476Y-148962857D01*
X126315476Y-149058095D01*
X126363095Y-149200952D01*
X126934523Y-149772380D01*
X126315476Y-149772380D01*
X125982142Y-148772380D02*
X125363095Y-148772380D01*
X125696428Y-149153333D01*
X125553571Y-149153333D01*
X125458333Y-149200952D01*
X125410714Y-149248571D01*
X125363095Y-149343809D01*
X125363095Y-149581904D01*
X125410714Y-149677142D01*
X125458333Y-149724761D01*
X125553571Y-149772380D01*
X125839285Y-149772380D01*
X125934523Y-149724761D01*
X125982142Y-149677142D01*
%TO.C,R20*%
X116720857Y-73825380D02*
X117054190Y-73349190D01*
X117292285Y-73825380D02*
X117292285Y-72825380D01*
X116911333Y-72825380D01*
X116816095Y-72873000D01*
X116768476Y-72920619D01*
X116720857Y-73015857D01*
X116720857Y-73158714D01*
X116768476Y-73253952D01*
X116816095Y-73301571D01*
X116911333Y-73349190D01*
X117292285Y-73349190D01*
X116339904Y-72920619D02*
X116292285Y-72873000D01*
X116197047Y-72825380D01*
X115958952Y-72825380D01*
X115863714Y-72873000D01*
X115816095Y-72920619D01*
X115768476Y-73015857D01*
X115768476Y-73111095D01*
X115816095Y-73253952D01*
X116387523Y-73825380D01*
X115768476Y-73825380D01*
X115149428Y-72825380D02*
X115054190Y-72825380D01*
X114958952Y-72873000D01*
X114911333Y-72920619D01*
X114863714Y-73015857D01*
X114816095Y-73206333D01*
X114816095Y-73444428D01*
X114863714Y-73634904D01*
X114911333Y-73730142D01*
X114958952Y-73777761D01*
X115054190Y-73825380D01*
X115149428Y-73825380D01*
X115244666Y-73777761D01*
X115292285Y-73730142D01*
X115339904Y-73634904D01*
X115387523Y-73444428D01*
X115387523Y-73206333D01*
X115339904Y-73015857D01*
X115292285Y-72920619D01*
X115244666Y-72873000D01*
X115149428Y-72825380D01*
%TO.C,R19*%
X110642857Y-112022380D02*
X110976190Y-111546190D01*
X111214285Y-112022380D02*
X111214285Y-111022380D01*
X110833333Y-111022380D01*
X110738095Y-111070000D01*
X110690476Y-111117619D01*
X110642857Y-111212857D01*
X110642857Y-111355714D01*
X110690476Y-111450952D01*
X110738095Y-111498571D01*
X110833333Y-111546190D01*
X111214285Y-111546190D01*
X109690476Y-112022380D02*
X110261904Y-112022380D01*
X109976190Y-112022380D02*
X109976190Y-111022380D01*
X110071428Y-111165238D01*
X110166666Y-111260476D01*
X110261904Y-111308095D01*
X109214285Y-112022380D02*
X109023809Y-112022380D01*
X108928571Y-111974761D01*
X108880952Y-111927142D01*
X108785714Y-111784285D01*
X108738095Y-111593809D01*
X108738095Y-111212857D01*
X108785714Y-111117619D01*
X108833333Y-111070000D01*
X108928571Y-111022380D01*
X109119047Y-111022380D01*
X109214285Y-111070000D01*
X109261904Y-111117619D01*
X109309523Y-111212857D01*
X109309523Y-111450952D01*
X109261904Y-111546190D01*
X109214285Y-111593809D01*
X109119047Y-111641428D01*
X108928571Y-111641428D01*
X108833333Y-111593809D01*
X108785714Y-111546190D01*
X108738095Y-111450952D01*
%TO.C,R24*%
X134851380Y-80192142D02*
X134375190Y-79858809D01*
X134851380Y-79620714D02*
X133851380Y-79620714D01*
X133851380Y-80001666D01*
X133899000Y-80096904D01*
X133946619Y-80144523D01*
X134041857Y-80192142D01*
X134184714Y-80192142D01*
X134279952Y-80144523D01*
X134327571Y-80096904D01*
X134375190Y-80001666D01*
X134375190Y-79620714D01*
X133946619Y-80573095D02*
X133899000Y-80620714D01*
X133851380Y-80715952D01*
X133851380Y-80954047D01*
X133899000Y-81049285D01*
X133946619Y-81096904D01*
X134041857Y-81144523D01*
X134137095Y-81144523D01*
X134279952Y-81096904D01*
X134851380Y-80525476D01*
X134851380Y-81144523D01*
X134184714Y-82001666D02*
X134851380Y-82001666D01*
X133803761Y-81763571D02*
X134518047Y-81525476D01*
X134518047Y-82144523D01*
%TO.C,R23*%
X139882380Y-114060142D02*
X139406190Y-113726809D01*
X139882380Y-113488714D02*
X138882380Y-113488714D01*
X138882380Y-113869666D01*
X138930000Y-113964904D01*
X138977619Y-114012523D01*
X139072857Y-114060142D01*
X139215714Y-114060142D01*
X139310952Y-114012523D01*
X139358571Y-113964904D01*
X139406190Y-113869666D01*
X139406190Y-113488714D01*
X138977619Y-114441095D02*
X138930000Y-114488714D01*
X138882380Y-114583952D01*
X138882380Y-114822047D01*
X138930000Y-114917285D01*
X138977619Y-114964904D01*
X139072857Y-115012523D01*
X139168095Y-115012523D01*
X139310952Y-114964904D01*
X139882380Y-114393476D01*
X139882380Y-115012523D01*
X138882380Y-115345857D02*
X138882380Y-115964904D01*
X139263333Y-115631571D01*
X139263333Y-115774428D01*
X139310952Y-115869666D01*
X139358571Y-115917285D01*
X139453809Y-115964904D01*
X139691904Y-115964904D01*
X139787142Y-115917285D01*
X139834761Y-115869666D01*
X139882380Y-115774428D01*
X139882380Y-115488714D01*
X139834761Y-115393476D01*
X139787142Y-115345857D01*
%TO.C,R22*%
X139882380Y-111012142D02*
X139406190Y-110678809D01*
X139882380Y-110440714D02*
X138882380Y-110440714D01*
X138882380Y-110821666D01*
X138930000Y-110916904D01*
X138977619Y-110964523D01*
X139072857Y-111012142D01*
X139215714Y-111012142D01*
X139310952Y-110964523D01*
X139358571Y-110916904D01*
X139406190Y-110821666D01*
X139406190Y-110440714D01*
X138977619Y-111393095D02*
X138930000Y-111440714D01*
X138882380Y-111535952D01*
X138882380Y-111774047D01*
X138930000Y-111869285D01*
X138977619Y-111916904D01*
X139072857Y-111964523D01*
X139168095Y-111964523D01*
X139310952Y-111916904D01*
X139882380Y-111345476D01*
X139882380Y-111964523D01*
X138977619Y-112345476D02*
X138930000Y-112393095D01*
X138882380Y-112488333D01*
X138882380Y-112726428D01*
X138930000Y-112821666D01*
X138977619Y-112869285D01*
X139072857Y-112916904D01*
X139168095Y-112916904D01*
X139310952Y-112869285D01*
X139882380Y-112297857D01*
X139882380Y-112916904D01*
D11*
%TO.C,J14*%
X89660000Y-143685000D02*
X84340000Y-143685000D01*
X89660000Y-154305000D02*
X89660000Y-143685000D01*
X84340000Y-154305000D02*
X89660000Y-154305000D01*
X84340000Y-143685000D02*
X84340000Y-154305000D01*
%TO.C,J11*%
X81315000Y-123340000D02*
X70695000Y-123340000D01*
X70695000Y-123340000D02*
X70695000Y-128660000D01*
X81315000Y-128660000D02*
X81315000Y-123340000D01*
X70695000Y-128660000D02*
X81315000Y-128660000D01*
%TO.C,J7*%
X69660000Y-70190000D02*
X64340000Y-70190000D01*
X64340000Y-70190000D02*
X64340000Y-80810000D01*
X64340000Y-80810000D02*
X69660000Y-80810000D01*
X69660000Y-80810000D02*
X69660000Y-70190000D01*
%TO.C,J17*%
X143685000Y-119660000D02*
X154305000Y-119660000D01*
X154305000Y-114340000D02*
X143685000Y-114340000D01*
X154305000Y-119660000D02*
X154305000Y-114340000D01*
X143685000Y-114340000D02*
X143685000Y-119660000D01*
%TO.C,R25*%
X131840500Y-80597742D02*
X131840500Y-81072258D01*
X130795500Y-80597742D02*
X130795500Y-81072258D01*
%TO.C,C23*%
X126886252Y-151735000D02*
X126363748Y-151735000D01*
X126886252Y-150265000D02*
X126363748Y-150265000D01*
%TO.C,R20*%
X116315258Y-74280500D02*
X115840742Y-74280500D01*
X116315258Y-75325500D02*
X115840742Y-75325500D01*
%TO.C,R19*%
X110237258Y-113522500D02*
X109762742Y-113522500D01*
X110237258Y-112477500D02*
X109762742Y-112477500D01*
%TO.C,R24*%
X132446500Y-81072258D02*
X132446500Y-80597742D01*
X133491500Y-81072258D02*
X133491500Y-80597742D01*
%TO.C,R23*%
X137477500Y-114940258D02*
X137477500Y-114465742D01*
X138522500Y-114940258D02*
X138522500Y-114465742D01*
%TO.C,R22*%
X137477500Y-111892258D02*
X137477500Y-111417742D01*
X138522500Y-111892258D02*
X138522500Y-111417742D01*
%TD*%
M02*
